<svg xmlns="http://www.w3.org/2000/svg" viewBox="0 0 43.52 47.2"><defs><style>.cls-1{fill:none;}.cls-2{fill:#040000;}</style></defs><g id="レイヤー_2" data-name="レイヤー 2"><g id="レイヤー_1-2" data-name="レイヤー 1"><rect class="cls-1" width="43.52" height="47.2"/><path class="cls-2" d="M19.64,29.29a.8.8,0,0,1-.2-.5,1.18,1.18,0,0,1,.4-.78,7.15,7.15,0,0,1,.85-.75,3.1,3.1,0,0,0,.84-.88,2.1,2.1,0,0,0,.4-1.23,2.07,2.07,0,0,0-.51-1.38l-.71-.84a.27.27,0,0,1-.07-.2.28.28,0,0,1,.11-.21.4.4,0,0,1,.24-.1.24.24,0,0,1,.21.12l3,3.59a.85.85,0,0,1,.2.51,1.27,1.27,0,0,1-.4.78,6.63,6.63,0,0,1-.84.74,3,3,0,0,0-.85.88,2.08,2.08,0,0,0-.4,1.23,2.12,2.12,0,0,0,.47,1.39l1.68,2a.53.53,0,0,1,.1.2.29.29,0,0,1-.1.23.4.4,0,0,1-.23.1,1.13,1.13,0,0,1-.31-.22,4.26,4.26,0,0,0-.79-.45,3,3,0,0,0-1.07-.21,1.19,1.19,0,0,0-.8.27,1.55,1.55,0,0,0-.27,1.06,2.88,2.88,0,0,0,.56,1.87.2.2,0,0,1,0,.2.13.13,0,0,1-.13.08c-.1,0-.3-.24-.61-.71a11.68,11.68,0,0,1-.92-1.7,4.31,4.31,0,0,1-.45-1.68c0-.56.27-.84.8-.84a6.42,6.42,0,0,1,2.39.63l-2.64-3.17Z"/></g></g></svg>