<svg xmlns="http://www.w3.org/2000/svg" viewBox="0 0 43.52 47.2"><defs><style>.cls-1{fill:none;}.cls-2{fill:#040000;}</style></defs><g id="レイヤー_2" data-name="レイヤー 2"><g id="レイヤー_1-2" data-name="レイヤー 1"><rect class="cls-1" width="43.52" height="47.2"/><path class="cls-2" d="M35.55,29.74a.33.33,0,0,1-.33-.33V12.85a.33.33,0,0,1,.33-.33.32.32,0,0,1,.32.33V29.41A.32.32,0,0,1,35.55,29.74Z"/><path class="cls-2" d="M30.7,28.77a4.48,4.48,0,0,1,3-1.17,2.58,2.58,0,0,1,1.58.48,1.71,1.71,0,0,1,.6,1.33,3.32,3.32,0,0,1-1.38,2.52,4.63,4.63,0,0,1-3,1.17,2.56,2.56,0,0,1-1.58-.48,1.69,1.69,0,0,1-.61-1.33,3.3,3.3,0,0,1,1.41-2.52Z"/><path class="cls-2" d="M3.92,26.68a1.4,1.4,0,0,1,1-.43,1.1,1.1,0,0,1,.86.31,1.22,1.22,0,0,1,.32.66,2.55,2.55,0,0,0,.19.67.52.52,0,0,0,.45.31c.14,0,.36-.16.65-.49A3.83,3.83,0,0,0,8,27a.31.31,0,0,1,.28-.19h0a.31.31,0,0,1,.28.19l-2.46,8.4a.76.76,0,0,1-.55.2.76.76,0,0,1-.55-.2l2.35-6.52a6.51,6.51,0,0,1-2.11.45A1.76,1.76,0,0,1,4,28.83a1.41,1.41,0,0,1-.53-1.14,1.32,1.32,0,0,1,.43-1Z"/><path class="cls-2" d="M35.85,12.85a4.93,4.93,0,0,0,.43,2,10.48,10.48,0,0,0,1,1.86l1.18,1.71a8.65,8.65,0,0,1,1,1.86,4.8,4.8,0,0,1,.43,2,4.4,4.4,0,0,1-.47,1.92A5.25,5.25,0,0,1,40,26.48a8.93,8.93,0,0,1-.84,3.67.45.45,0,0,1-.37.24.46.46,0,0,1-.35-.16.38.38,0,0,1-.12-.29v-.1a7.39,7.39,0,0,0,.84-3.36,3.4,3.4,0,0,0-.29-1.4A7.18,7.18,0,0,0,38,23.67a13.06,13.06,0,0,0-1-1.21c-.34-.34-.73-.71-1.17-1.12v1.51h-.63v-10Zm3.07,10.33a3,3,0,0,0,.13-.94,3.84,3.84,0,0,0-.27-1.38A7.25,7.25,0,0,0,38,19.43c-.33-.4-.66-.8-1-1.19s-.63-.67-1.11-1.13a5,5,0,0,0,.33,1.7,14.23,14.23,0,0,0,.72,1.46c.29.44.64.94,1.06,1.5S38.69,22.8,38.92,23.18Z"/><path class="cls-2" d="M10.69,28.65a1.13,1.13,0,1,1,.8.33A1.09,1.09,0,0,1,10.69,28.65Z"/></g></g></svg>