<svg xmlns="http://www.w3.org/2000/svg" viewBox="0 0 43.52 47.2"><defs><style>.cls-1{fill:none;}.cls-2{fill:#040000;}</style></defs><g id="レイヤー_2" data-name="レイヤー 2"><g id="レイヤー_1-2" data-name="レイヤー 1"><rect class="cls-1" width="43.52" height="47.2"/><path class="cls-2" d="M32.71,29.74a.33.33,0,0,1-.33-.33V15.35a.33.33,0,0,1,.33-.33.32.32,0,0,1,.32.33V29.41A.32.32,0,0,1,32.71,29.74Z"/><path class="cls-2" d="M27.85,28.77a4.5,4.5,0,0,1,3-1.17,2.56,2.56,0,0,1,1.58.48A1.69,1.69,0,0,1,33,29.41a3.31,3.31,0,0,1-1.39,2.52,4.61,4.61,0,0,1-3,1.17,2.58,2.58,0,0,1-1.58-.48,1.71,1.71,0,0,1-.6-1.33,3.32,3.32,0,0,1,1.4-2.52Z"/><path class="cls-2" d="M6.76,26.68a1.4,1.4,0,0,1,1-.43,1.12,1.12,0,0,1,.86.31,1.2,1.2,0,0,1,.31.66,3,3,0,0,0,.19.67.52.52,0,0,0,.45.31c.15,0,.36-.16.65-.49a3.93,3.93,0,0,0,.57-.76.28.28,0,0,1,.27-.19h0a.29.29,0,0,1,.27.19l-2.46,8.4a.74.74,0,0,1-.55.2.73.73,0,0,1-.54-.2l2.34-6.52a6.45,6.45,0,0,1-2.11.45,1.76,1.76,0,0,1-1.21-.45,1.41,1.41,0,0,1-.53-1.14,1.36,1.36,0,0,1,.43-1Z"/><path class="cls-2" d="M32.38,20.35v-5H33a6,6,0,0,0,.43,2.22,11.52,11.52,0,0,0,1,2.11l1.23,2a12.44,12.44,0,0,1,1.06,2.13A6.25,6.25,0,0,1,37.19,26a11.09,11.09,0,0,1-.84,4.14.46.46,0,0,1-.38.24.47.47,0,0,1-.35-.16.38.38,0,0,1-.11-.29v-.1A9.54,9.54,0,0,0,36.35,26a4.67,4.67,0,0,0-.59-2.11,8.92,8.92,0,0,0-1.19-1.83c-.46-.54-1-1.11-1.56-1.72Z"/></g></g></svg>