<svg xmlns="http://www.w3.org/2000/svg" viewBox="0 0 43.52 47.2"><defs><style>.cls-1{fill:none;}.cls-2,.cls-3{fill:#040000;}.cls-3{fill-rule:evenodd;}</style></defs><g id="レイヤー_2" data-name="レイヤー 2"><g id="レイヤー_1-2" data-name="レイヤー 1"><rect class="cls-1" width="43.52" height="47.2"/><path class="cls-2" d="M28,29.74a.33.33,0,0,1-.33-.33V15.35A.33.33,0,0,1,28,15a.32.32,0,0,1,.32.33V29.41A.32.32,0,0,1,28,29.74Z"/><path class="cls-2" d="M38.86,29.74a.33.33,0,0,1-.33-.33V15.35a.33.33,0,0,1,.33-.33.32.32,0,0,1,.32.33V29.41A.32.32,0,0,1,38.86,29.74Z"/><path class="cls-2" d="M34,28.77a4.52,4.52,0,0,1,3-1.17,2.59,2.59,0,0,1,1.59.48,1.71,1.71,0,0,1,.6,1.33,3.31,3.31,0,0,1-1.39,2.52,4.61,4.61,0,0,1-3,1.17,2.59,2.59,0,0,1-1.59-.48,1.71,1.71,0,0,1-.6-1.33A3.32,3.32,0,0,1,34,28.77Z"/><path class="cls-2" d="M23.16,28.77a4.48,4.48,0,0,1,3-1.17,2.58,2.58,0,0,1,1.58.48,1.71,1.71,0,0,1,.6,1.33A3.32,3.32,0,0,1,27,31.93a4.63,4.63,0,0,1-3,1.17,2.56,2.56,0,0,1-1.58-.48,1.69,1.69,0,0,1-.61-1.33,3.3,3.3,0,0,1,1.41-2.52Z"/><path class="cls-2" d="M4.77,26.68a1.38,1.38,0,0,1,1-.43,1.1,1.1,0,0,1,.86.31,1.13,1.13,0,0,1,.31.66,2.61,2.61,0,0,0,.2.67.52.52,0,0,0,.45.31c.14,0,.36-.16.64-.49A3.93,3.93,0,0,0,8.83,27a.29.29,0,0,1,.27-.19h0A.32.32,0,0,1,9.4,27l-2.47,8.4a.73.73,0,0,1-.54.2.74.74,0,0,1-.55-.2l2.34-6.52a6.4,6.4,0,0,1-2.1.45,1.79,1.79,0,0,1-1.22-.45,1.4,1.4,0,0,1-.52-1.14,1.32,1.32,0,0,1,.43-1Z"/><polyline class="cls-3" points="27.68 14.1 39.18 14.1 39.18 16.6 27.68 16.6 27.68 14.1"/><polyline class="cls-3" points="27.68 17.85 39.18 17.85 39.18 20.35 27.68 20.35 27.68 17.85"/></g></g></svg>