<svg xmlns="http://www.w3.org/2000/svg" viewBox="0 0 43.52 47.2"><defs><style>.cls-1{fill:none;}.cls-2{fill:#040000;}</style></defs><g id="レイヤー_2" data-name="レイヤー 2"><g id="レイヤー_1-2" data-name="レイヤー 1"><rect class="cls-1" width="43.52" height="47.2"/><path class="cls-2" d="M29.18,31a.32.32,0,0,1-.32-.33V11.6a.32.32,0,0,1,.32-.33.33.33,0,0,1,.33.33V30.66A.33.33,0,0,1,29.18,31Z"/><path class="cls-2" d="M24.33,30a4.5,4.5,0,0,1,3-1.17,2.58,2.58,0,0,1,1.58.48,1.71,1.71,0,0,1,.6,1.33,3.32,3.32,0,0,1-1.38,2.52,4.63,4.63,0,0,1-3,1.17,2.56,2.56,0,0,1-1.58-.48,1.69,1.69,0,0,1-.61-1.33A3.3,3.3,0,0,1,24.33,30Z"/><path class="cls-2" d="M11.85,27.93a1.4,1.4,0,0,1,1-.43,1,1,0,0,1,.84.31,1.47,1.47,0,0,1,.33.66,1.65,1.65,0,0,0,.19.67.43.43,0,0,0,.43.31c.13,0,.33-.16.59-.47a4.16,4.16,0,0,0,.56-.78.31.31,0,0,1,.28-.19h0a.29.29,0,0,1,.25.19L12.81,41.6a.86.86,0,0,1-1.1,0l2-6.54a6.83,6.83,0,0,1-2.13.47,1.75,1.75,0,0,1-1.21-.45,1.38,1.38,0,0,1-.53-1.14,1.34,1.34,0,0,1,.41-1,1.38,1.38,0,0,1,1-.43,1,1,0,0,1,.84.31,1.26,1.26,0,0,1,.35.66,2.21,2.21,0,0,0,.2.67.44.44,0,0,0,.43.31c.16,0,.38-.18.66-.55a2.47,2.47,0,0,0,.55-.8l.92-3a6.4,6.4,0,0,1-2.09.45A1.76,1.76,0,0,1,12,30.08a1.41,1.41,0,0,1-.53-1.14,1.32,1.32,0,0,1,.43-1Z"/><path class="cls-2" d="M28.86,16.6v-5h.62a6,6,0,0,0,.43,2.22,11.85,11.85,0,0,0,1,2.11l1.23,2a13.17,13.17,0,0,1,1,2.13,6,6,0,0,1,.43,2.22,11.09,11.09,0,0,1-.84,4.14.44.44,0,0,1-.37.24.46.46,0,0,1-.35-.16.38.38,0,0,1-.12-.29v-.1a9.54,9.54,0,0,0,.84-3.83,4.54,4.54,0,0,0-.59-2.11A8.28,8.28,0,0,0,31,18.32c-.45-.54-1-1.11-1.56-1.72Z"/><path class="cls-2" d="M31.59,29.9a1.13,1.13,0,1,1,.8.33A1.09,1.09,0,0,1,31.59,29.9Z"/></g></g></svg>