<svg xmlns="http://www.w3.org/2000/svg" viewBox="0 0 43.52 47.2"><defs><style>.cls-1{fill:none;}.cls-2,.cls-3{fill:#040000;}.cls-3{fill-rule:evenodd;}</style></defs><g id="レイヤー_2" data-name="レイヤー 2"><g id="レイヤー_1-2" data-name="レイヤー 1"><rect class="cls-1" width="43.52" height="47.2"/><path class="cls-2" d="M21,29.74a.32.32,0,0,1-.32-.33V15.35A.32.32,0,0,1,21,15a.33.33,0,0,1,.33.33V29.41A.33.33,0,0,1,21,29.74Z"/><path class="cls-2" d="M42.14,29.74a.32.32,0,0,1-.32-.33V15.35a.32.32,0,0,1,.32-.33.33.33,0,0,1,.33.33V29.41A.33.33,0,0,1,42.14,29.74Z"/><path class="cls-2" d="M16.18,28.77a4.5,4.5,0,0,1,3-1.17,2.58,2.58,0,0,1,1.58.48,1.72,1.72,0,0,1,.61,1.33A3.34,3.34,0,0,1,20,31.93a4.63,4.63,0,0,1-3,1.17,2.58,2.58,0,0,1-1.58-.48,1.69,1.69,0,0,1-.61-1.33,3.3,3.3,0,0,1,1.41-2.52Z"/><path class="cls-2" d="M37.29,28.77a4.5,4.5,0,0,1,3-1.17,2.58,2.58,0,0,1,1.58.48,1.69,1.69,0,0,1,.61,1.33,3.34,3.34,0,0,1-1.39,2.52,4.63,4.63,0,0,1-3,1.17,2.58,2.58,0,0,1-1.58-.48,1.72,1.72,0,0,1-.61-1.33,3.3,3.3,0,0,1,1.41-2.52Z"/><path class="cls-2" d="M3,26.68a1.4,1.4,0,0,1,1-.43,1,1,0,0,1,.84.31,1.47,1.47,0,0,1,.33.66,1.52,1.52,0,0,0,.2.67.42.42,0,0,0,.43.31c.13,0,.32-.16.58-.47A5,5,0,0,0,7,27a.28.28,0,0,1,.27-.19h0a.28.28,0,0,1,.25.19L4,40.35a.74.74,0,0,1-.55.2.73.73,0,0,1-.54-.2l2-6.54a6.71,6.71,0,0,1-2.13.47,1.76,1.76,0,0,1-1.21-.45,1.41,1.41,0,0,1-.53-1.14,1.38,1.38,0,0,1,.41-1,1.4,1.4,0,0,1,1-.43,1,1,0,0,1,.84.31,1.42,1.42,0,0,1,.35.66,2.23,2.23,0,0,0,.19.67.45.45,0,0,0,.43.31c.16,0,.38-.18.67-.55a2.4,2.4,0,0,0,.54-.8l.92-3a6.4,6.4,0,0,1-2.09.45,1.76,1.76,0,0,1-1.21-.45,1.41,1.41,0,0,1-.53-1.14,1.36,1.36,0,0,1,.43-1Z"/><polyline class="cls-3" points="20.71 14.1 42.47 14.1 42.47 16.6 20.71 16.6 20.71 14.1"/><polyline class="cls-3" points="42.47 17.85 35.87 17.85 35.87 20.35 42.47 20.35 42.47 17.85"/></g></g></svg>