<svg xmlns="http://www.w3.org/2000/svg" viewBox="0 0 43.52 47.2"><defs><style>.cls-1{fill:none;}.cls-2,.cls-3{fill:#040000;}.cls-3{fill-rule:evenodd;}</style></defs><g id="レイヤー_2" data-name="レイヤー 2"><g id="レイヤー_1-2" data-name="レイヤー 1"><rect class="cls-1" width="43.52" height="47.2"/><path class="cls-2" d="M25,29.74a.33.33,0,0,1-.33-.33V15.35A.33.33,0,0,1,25,15a.32.32,0,0,1,.32.33V29.41A.32.32,0,0,1,25,29.74Z"/><path class="cls-2" d="M37.52,29.74a.32.32,0,0,1-.32-.33V15.35a.32.32,0,0,1,.32-.33.33.33,0,0,1,.33.33V29.41A.33.33,0,0,1,37.52,29.74Z"/><path class="cls-2" d="M20.14,28.77a4.5,4.5,0,0,1,3-1.17,2.58,2.58,0,0,1,1.58.48,1.71,1.71,0,0,1,.6,1.33,3.32,3.32,0,0,1-1.38,2.52,4.63,4.63,0,0,1-3,1.17,2.56,2.56,0,0,1-1.58-.48,1.69,1.69,0,0,1-.61-1.33,3.3,3.3,0,0,1,1.41-2.52Z"/><path class="cls-2" d="M32.67,28.77a4.5,4.5,0,0,1,3-1.17,2.56,2.56,0,0,1,1.58.48,1.69,1.69,0,0,1,.61,1.33,3.31,3.31,0,0,1-1.39,2.52,4.63,4.63,0,0,1-3,1.17,2.58,2.58,0,0,1-1.58-.48,1.71,1.71,0,0,1-.6-1.33,3.29,3.29,0,0,1,1.4-2.52Z"/><path class="cls-2" d="M7.66,26.68a1.4,1.4,0,0,1,1-.43,1,1,0,0,1,.84.31,1.47,1.47,0,0,1,.33.66,1.65,1.65,0,0,0,.19.67.43.43,0,0,0,.43.31c.13,0,.33-.16.59-.47a5,5,0,0,0,.57-.78.28.28,0,0,1,.27-.19h0a.28.28,0,0,1,.25.19L8.62,40.35a.74.74,0,0,1-.55.2.76.76,0,0,1-.55-.2l2-6.54a6.83,6.83,0,0,1-2.13.47,1.75,1.75,0,0,1-1.21-.45,1.45,1.45,0,0,1,.91-2.58,1,1,0,0,1,.84.31,1.36,1.36,0,0,1,.36.66,2,2,0,0,0,.19.67.45.45,0,0,0,.43.31c.16,0,.38-.18.66-.55a2.47,2.47,0,0,0,.55-.8l.92-3A6.4,6.4,0,0,1,9,29.28a1.76,1.76,0,0,1-1.21-.45,1.41,1.41,0,0,1-.53-1.14,1.32,1.32,0,0,1,.43-1Z"/><polyline class="cls-3" points="24.66 14.1 37.85 14.1 37.85 16.6 24.66 16.6 24.66 14.1"/><polyline class="cls-3" points="24.66 17.85 31.27 17.85 31.27 20.35 24.66 20.35 24.66 17.85"/></g></g></svg>