<svg xmlns="http://www.w3.org/2000/svg" viewBox="0 0 43.52 47.2"><defs><style>.cls-1{fill:none;}.cls-2,.cls-3{fill:#040000;}.cls-3{fill-rule:evenodd;}</style></defs><g id="レイヤー_2" data-name="レイヤー 2"><g id="レイヤー_1-2" data-name="レイヤー 1"><rect class="cls-1" width="43.52" height="47.2"/><path class="cls-2" d="M19.57,29.74a.33.33,0,0,1-.33-.33V15.35a.33.33,0,0,1,.33-.33.32.32,0,0,1,.32.33V29.41A.32.32,0,0,1,19.57,29.74Z"/><path class="cls-2" d="M30.41,29.74a.32.32,0,0,1-.32-.33V15.35a.32.32,0,0,1,.32-.33.33.33,0,0,1,.33.33V29.41A.33.33,0,0,1,30.41,29.74Z"/><path class="cls-2" d="M41.26,29.74a.33.33,0,0,1-.33-.33V15.35a.33.33,0,0,1,.66,0V29.41A.33.33,0,0,1,41.26,29.74Z"/><path class="cls-2" d="M25.56,28.77a4.5,4.5,0,0,1,3-1.17,2.58,2.58,0,0,1,1.58.48,1.69,1.69,0,0,1,.61,1.33,3.34,3.34,0,0,1-1.39,2.52,4.63,4.63,0,0,1-3,1.17,2.58,2.58,0,0,1-1.58-.48,1.72,1.72,0,0,1-.61-1.33,3.3,3.3,0,0,1,1.41-2.52Z"/><path class="cls-2" d="M36.41,28.77a4.5,4.5,0,0,1,3-1.17,2.58,2.58,0,0,1,1.58.48,1.71,1.71,0,0,1,.6,1.33,3.32,3.32,0,0,1-1.38,2.52,4.63,4.63,0,0,1-3,1.17,2.56,2.56,0,0,1-1.58-.48A1.69,1.69,0,0,1,35,31.29a3.3,3.3,0,0,1,1.41-2.52Z"/><path class="cls-2" d="M14.71,28.77a4.52,4.52,0,0,1,3-1.17,2.56,2.56,0,0,1,1.58.48,1.69,1.69,0,0,1,.61,1.33,3.31,3.31,0,0,1-1.39,2.52,4.61,4.61,0,0,1-3,1.17,2.59,2.59,0,0,1-1.59-.48,1.71,1.71,0,0,1-.6-1.33,3.32,3.32,0,0,1,1.4-2.52Z"/><path class="cls-2" d="M3.93,26.68a1.38,1.38,0,0,1,1-.43,1,1,0,0,1,.84.31,1.47,1.47,0,0,1,.33.66,1.67,1.67,0,0,0,.2.67.43.43,0,0,0,.43.31c.13,0,.32-.16.58-.47A5,5,0,0,0,7.91,27a.29.29,0,0,1,.27-.19h0a.3.3,0,0,1,.26.19L4.88,40.35a.73.73,0,0,1-.54.2.74.74,0,0,1-.55-.2l2-6.54a6.71,6.71,0,0,1-2.13.47,1.76,1.76,0,0,1-1.21-.45,1.41,1.41,0,0,1-.53-1.14,1.38,1.38,0,0,1,.41-1,1.4,1.4,0,0,1,1-.43,1,1,0,0,1,.84.31,1.42,1.42,0,0,1,.35.66,2,2,0,0,0,.2.67.44.44,0,0,0,.42.31c.16,0,.38-.18.67-.55a2.64,2.64,0,0,0,.55-.8l.91-3a6.4,6.4,0,0,1-2.09.45A1.78,1.78,0,0,1,4,28.83a1.4,1.4,0,0,1-.52-1.14,1.32,1.32,0,0,1,.43-1Z"/><polyline class="cls-3" points="19.24 14.1 41.59 14.1 41.59 16.6 19.24 16.6 19.24 14.1"/><polyline class="cls-3" points="19.24 17.85 41.59 17.85 41.59 20.35 19.24 20.35 19.24 17.85"/></g></g></svg>