<svg xmlns="http://www.w3.org/2000/svg" viewBox="0 0 43.52 47.2"><defs><style>.cls-1{fill:none;}.cls-2{fill:#040000;}</style></defs><g id="レイヤー_2" data-name="レイヤー 2"><g id="レイヤー_1-2" data-name="レイヤー 1"><rect class="cls-1" width="43.52" height="47.2"/><path class="cls-2" d="M24.73,29.74a.33.33,0,0,1-.33-.33V17.22a.32.32,0,0,1,.33-.32.32.32,0,0,1,.32.32V29.41A.32.32,0,0,1,24.73,29.74Z"/><path class="cls-2" d="M19.87,28.77a4.52,4.52,0,0,1,3-1.17,2.54,2.54,0,0,1,1.58.48,1.69,1.69,0,0,1,.61,1.33,3.31,3.31,0,0,1-1.39,2.52,4.61,4.61,0,0,1-3,1.17,2.59,2.59,0,0,1-1.59-.48,1.71,1.71,0,0,1-.6-1.33,3.32,3.32,0,0,1,1.4-2.52Z"/></g></g></svg>