<svg xmlns="http://www.w3.org/2000/svg" viewBox="0 0 43.52 47.2"><defs><style>.cls-1{fill:none;}.cls-2,.cls-3{fill:#040000;}.cls-3{fill-rule:evenodd;}</style></defs><g id="レイヤー_2" data-name="レイヤー 2"><g id="レイヤー_1-2" data-name="レイヤー 1"><rect class="cls-1" width="43.52" height="47.2"/><path class="cls-2" d="M37.6,29.74a.33.33,0,0,1-.33-.33V15.35A.33.33,0,0,1,37.6,15a.32.32,0,0,1,.32.33V29.41A.32.32,0,0,1,37.6,29.74Z"/><path class="cls-2" d="M11.85,29.74a.33.33,0,0,1-.32-.33V15.35a.33.33,0,1,1,.65,0V29.41A.33.33,0,0,1,11.85,29.74Z"/><path class="cls-2" d="M32.75,28.77a4.48,4.48,0,0,1,3-1.17,2.59,2.59,0,0,1,1.59.48,1.71,1.71,0,0,1,.6,1.33,3.31,3.31,0,0,1-1.39,2.52,4.61,4.61,0,0,1-3,1.17,2.59,2.59,0,0,1-1.59-.48,1.71,1.71,0,0,1-.6-1.33,3.3,3.3,0,0,1,1.41-2.52Z"/><path class="cls-2" d="M7,28.77a4.5,4.5,0,0,1,3-1.17,2.56,2.56,0,0,1,1.58.48,1.69,1.69,0,0,1,.61,1.33,3.31,3.31,0,0,1-1.39,2.52,4.63,4.63,0,0,1-3,1.17,2.58,2.58,0,0,1-1.58-.48,1.71,1.71,0,0,1-.6-1.33A3.29,3.29,0,0,1,7,28.77Z"/><polyline class="cls-3" points="11.53 14.1 37.92 14.1 37.92 16.6 11.53 16.6 11.53 14.1"/><polyline class="cls-3" points="37.92 17.85 31.32 17.85 31.32 20.35 37.92 20.35 37.92 17.85"/><path class="cls-2" d="M14.26,28.65a1.13,1.13,0,1,1,.8.33A1.09,1.09,0,0,1,14.26,28.65Z"/></g></g></svg>