<svg xmlns="http://www.w3.org/2000/svg" viewBox="0 0 43.52 47.2"><defs><style>.cls-1{fill:none;}.cls-2,.cls-3{fill:#040000;}.cls-3{fill-rule:evenodd;}</style></defs><g id="レイヤー_2" data-name="レイヤー 2"><g id="レイヤー_1-2" data-name="レイヤー 1"><rect class="cls-1" width="43.52" height="47.2"/><path class="cls-2" d="M28,29.74a.32.32,0,0,1-.32-.33V15.35A.32.32,0,0,1,28,15a.33.33,0,0,1,.33.33V29.41A.33.33,0,0,1,28,29.74Z"/><path class="cls-2" d="M38.83,29.74a.33.33,0,0,1-.33-.33V15.35a.33.33,0,0,1,.33-.33.32.32,0,0,1,.32.33V29.41A.32.32,0,0,1,38.83,29.74Z"/><path class="cls-2" d="M10.62,29.74a.32.32,0,0,1-.32-.33V15.35a.32.32,0,0,1,.32-.33.33.33,0,0,1,.33.33V29.41A.33.33,0,0,1,10.62,29.74Z"/><path class="cls-2" d="M34,28.77a4.48,4.48,0,0,1,3-1.17,2.59,2.59,0,0,1,1.59.48,1.71,1.71,0,0,1,.6,1.33,3.31,3.31,0,0,1-1.39,2.52,4.61,4.61,0,0,1-3,1.17,2.59,2.59,0,0,1-1.59-.48,1.71,1.71,0,0,1-.6-1.33A3.3,3.3,0,0,1,34,28.77Z"/><path class="cls-2" d="M5.77,28.77a4.5,4.5,0,0,1,3-1.17,2.56,2.56,0,0,1,1.58.48A1.69,1.69,0,0,1,11,29.41a3.31,3.31,0,0,1-1.39,2.52,4.63,4.63,0,0,1-3,1.17A2.58,2.58,0,0,1,5,32.62a1.71,1.71,0,0,1-.6-1.33,3.29,3.29,0,0,1,1.4-2.52Z"/><path class="cls-2" d="M23.13,28.77a4.5,4.5,0,0,1,3-1.17,2.58,2.58,0,0,1,1.58.48,1.71,1.71,0,0,1,.6,1.33,3.32,3.32,0,0,1-1.38,2.52,4.63,4.63,0,0,1-3,1.17,2.56,2.56,0,0,1-1.58-.48,1.69,1.69,0,0,1-.61-1.33,3.3,3.3,0,0,1,1.41-2.52Z"/><polyline class="cls-3" points="10.3 14.1 39.15 14.1 39.15 16.6 10.3 16.6 10.3 14.1"/><polyline class="cls-3" points="27.66 17.85 39.15 17.85 39.15 20.35 27.66 20.35 27.66 17.85"/></g></g></svg>