<svg xmlns="http://www.w3.org/2000/svg" viewBox="0 0 43.52 47.2"><defs><style>.cls-1{fill:none;}.cls-2,.cls-3{fill:#040000;}.cls-3{fill-rule:evenodd;}</style></defs><g id="レイヤー_2" data-name="レイヤー 2"><g id="レイヤー_1-2" data-name="レイヤー 1"><rect class="cls-1" width="43.52" height="47.2"/><path class="cls-2" d="M13.42,29.74a.32.32,0,0,1-.32-.33V15.35a.32.32,0,0,1,.32-.33.33.33,0,0,1,.33.33V29.41A.33.33,0,0,1,13.42,29.74Z"/><path class="cls-2" d="M25.52,29.74a.33.33,0,0,1-.33-.33V15.35a.33.33,0,0,1,.33-.33.32.32,0,0,1,.32.33V29.41A.32.32,0,0,1,25.52,29.74Z"/><path class="cls-2" d="M8.57,28.77a4.5,4.5,0,0,1,3-1.17,2.58,2.58,0,0,1,1.58.48,1.69,1.69,0,0,1,.61,1.33,3.34,3.34,0,0,1-1.39,2.52,4.63,4.63,0,0,1-3,1.17,2.58,2.58,0,0,1-1.58-.48,1.72,1.72,0,0,1-.61-1.33,3.3,3.3,0,0,1,1.41-2.52Z"/><path class="cls-2" d="M20.67,28.77a4.48,4.48,0,0,1,3-1.17,2.59,2.59,0,0,1,1.59.48,1.71,1.71,0,0,1,.6,1.33,3.31,3.31,0,0,1-1.39,2.52,4.61,4.61,0,0,1-3,1.17,2.59,2.59,0,0,1-1.59-.48,1.71,1.71,0,0,1-.6-1.33,3.3,3.3,0,0,1,1.41-2.52Z"/><path class="cls-2" d="M31.72,26.68a1.42,1.42,0,0,1,1-.43,1.12,1.12,0,0,1,.86.31,1.2,1.2,0,0,1,.31.66,2.61,2.61,0,0,0,.2.67.49.49,0,0,0,.45.31c.14,0,.35-.16.64-.49a3.93,3.93,0,0,0,.57-.76.28.28,0,0,1,.27-.19h0a.29.29,0,0,1,.27.19l-2.46,8.4a.73.73,0,0,1-.54.2.74.74,0,0,1-.55-.2l2.34-6.52a6.4,6.4,0,0,1-2.11.45,1.76,1.76,0,0,1-1.21-.45,1.41,1.41,0,0,1-.53-1.14,1.36,1.36,0,0,1,.43-1Z"/><polyline class="cls-3" points="13.1 14.1 25.84 14.1 25.84 16.6 13.1 16.6 13.1 14.1"/><polyline class="cls-3" points="13.1 17.85 25.84 17.85 25.84 20.35 13.1 20.35 13.1 17.85"/></g></g></svg>