<svg xmlns="http://www.w3.org/2000/svg" viewBox="0 0 43.52 47.2"><defs><style>.cls-1{fill:none;}.cls-2,.cls-3{fill:#040000;}.cls-3{fill-rule:evenodd;}</style></defs><g id="レイヤー_2" data-name="レイヤー 2"><g id="レイヤー_1-2" data-name="レイヤー 1"><rect class="cls-1" width="43.52" height="47.2"/><path class="cls-2" d="M41.88,29.74a.33.33,0,0,1-.33-.33V15.35a.33.33,0,0,1,.33-.33.32.32,0,0,1,.32.33V29.41A.32.32,0,0,1,41.88,29.74Z"/><path class="cls-2" d="M7.57,29.74a.32.32,0,0,1-.32-.33V15.35A.32.32,0,0,1,7.57,15a.33.33,0,0,1,.33.33V29.41A.33.33,0,0,1,7.57,29.74Z"/><path class="cls-2" d="M20.77,29.74a.33.33,0,0,1-.33-.33V15.35a.33.33,0,0,1,.33-.33.32.32,0,0,1,.32.33V29.41A.32.32,0,0,1,20.77,29.74Z"/><path class="cls-2" d="M15.92,28.77a4.48,4.48,0,0,1,3-1.17,2.59,2.59,0,0,1,1.59.48,1.71,1.71,0,0,1,.6,1.33,3.31,3.31,0,0,1-1.39,2.52,4.61,4.61,0,0,1-3,1.17,2.59,2.59,0,0,1-1.59-.48,1.71,1.71,0,0,1-.6-1.33,3.3,3.3,0,0,1,1.41-2.52Z"/><path class="cls-2" d="M37,28.77a4.48,4.48,0,0,1,3-1.17,2.58,2.58,0,0,1,1.58.48,1.71,1.71,0,0,1,.6,1.33,3.32,3.32,0,0,1-1.38,2.52,4.63,4.63,0,0,1-3,1.17,2.56,2.56,0,0,1-1.58-.48,1.69,1.69,0,0,1-.61-1.33A3.3,3.3,0,0,1,37,28.77Z"/><path class="cls-2" d="M2.72,28.77a4.5,4.5,0,0,1,3-1.17,2.58,2.58,0,0,1,1.58.48,1.72,1.72,0,0,1,.61,1.33,3.34,3.34,0,0,1-1.39,2.52,4.63,4.63,0,0,1-3,1.17,2.58,2.58,0,0,1-1.58-.48,1.72,1.72,0,0,1-.61-1.33,3.3,3.3,0,0,1,1.41-2.52Z"/><polyline class="cls-3" points="7.25 14.1 42.2 14.1 42.2 16.6 7.25 16.6 7.25 14.1"/><polyline class="cls-3" points="7.25 17.85 13.85 17.85 13.85 20.35 7.25 20.35 7.25 17.85"/><polyline class="cls-3" points="42.2 17.85 35.6 17.85 35.6 20.35 42.2 20.35 42.2 17.85"/></g></g></svg>